# ProBuilder 5.0.4
# https://unity3d.com/unity/features/worldbuilding/probuilder
# 17/12/2022 10:26:11

mtllib ./quad25Vertices.mtl
o quad25Vertices

g 25 vertices quad
v -0.25 0.25 1.530808E-17
v 0 0 0
v 0 0.25 1.530808E-17
v -0.25 0 0
v -0.25 0.5 3.061617E-17
v 0 0.5 3.061617E-17
v -0.5 0.5 3.061617E-17
v -0.5 0.25 1.530808E-17
v -0.5 0 0
v -0.25 -0.25 -1.530808E-17
v 0 -0.5 -3.061617E-17
v 0 -0.25 -1.530808E-17
v -0.25 -0.5 -3.061617E-17
v -0.5 -0.25 -1.530808E-17
v -0.5 -0.5 -3.061617E-17
v 0.25 -0.25 -1.530808E-17
v 0.5 -0.5 -3.061617E-17
v 0.5 -0.25 -1.530808E-17
v 0.25 -0.5 -3.061617E-17
v 0.25 0 0
v 0.5 0 0
v 0.25 0.25 1.530808E-17
v 0.5 0.25 1.530808E-17
v 0.25 0.5 3.061617E-17
v 0.5 0.5 3.061617E-17

vt 0.75 0.75
vt 0.5 0.5
vt 0.5 0.75
vt 0.75 0.5
vt 0.75 1
vt 0.5 1
vt 1 1
vt 1 0.75
vt 1 0.5
vt 0.75 0.25
vt 0.5 0
vt 0.5 0.25
vt 0.75 0
vt 1 0.25
vt 1 0
vt 0.25 0.25
vt 0 0
vt 0 0.25
vt 0.25 0
vt 0.25 0.5
vt 0 0.5
vt 0.25 0.75
vt 0 0.75
vt 0.25 1
vt 0 1

vn 0 6.123234E-17 -1

usemtl Lit
f 3/3/1 2/2/1 1/1/1
f 2/2/1 4/4/1 1/1/1
f 6/6/1 3/3/1 5/5/1
f 3/3/1 1/1/1 5/5/1
f 5/5/1 1/1/1 7/7/1
f 1/1/1 8/8/1 7/7/1
f 1/1/1 4/4/1 8/8/1
f 4/4/1 9/9/1 8/8/1
f 12/12/1 11/11/1 10/10/1
f 11/11/1 13/13/1 10/10/1
f 2/2/1 12/12/1 4/4/1
f 12/12/1 10/10/1 4/4/1
f 4/4/1 10/10/1 9/9/1
f 10/10/1 14/14/1 9/9/1
f 10/10/1 13/13/1 14/14/1
f 13/13/1 15/15/1 14/14/1
f 18/18/1 17/17/1 16/16/1
f 17/17/1 19/19/1 16/16/1
f 21/21/1 18/18/1 20/20/1
f 18/18/1 16/16/1 20/20/1
f 20/20/1 16/16/1 2/2/1
f 16/16/1 12/12/1 2/2/1
f 16/16/1 19/19/1 12/12/1
f 19/19/1 11/11/1 12/12/1
f 23/23/1 21/21/1 22/22/1
f 21/21/1 20/20/1 22/22/1
f 25/25/1 23/23/1 24/24/1
f 23/23/1 22/22/1 24/24/1
f 24/24/1 22/22/1 6/6/1
f 22/22/1 3/3/1 6/6/1
f 22/22/1 20/20/1 3/3/1
f 20/20/1 2/2/1 3/3/1

