# ProBuilder 5.0.4
# https://unity3d.com/unity/features/worldbuilding/probuilder
# 17/12/2022 10:28:20

mtllib ./quad81Vertices.mtl
o quad81Vertices

g 81 vertices quad
v -0.125 0.125 7.654042E-18
v 0 0 0
v 0 0.125 7.654042E-18
v -0.125 0 0
v -0.125 0.25 1.530808E-17
v 0 0.25 1.530808E-17
v -0.25 0.25 1.530808E-17
v -0.25 0.125 7.654042E-18
v -0.25 0 0
v -0.125 0.375 2.296213E-17
v 0 0.375 2.296213E-17
v -0.125 0.5 3.061617E-17
v 0 0.5 3.061617E-17
v -0.25 0.5 3.061617E-17
v -0.25 0.375 2.296213E-17
v -0.375 0.375 2.296213E-17
v -0.375 0.25 1.530808E-17
v -0.375 0.5 3.061617E-17
v -0.5 0.5 3.061617E-17
v -0.5 0.375 2.296213E-17
v -0.5 0.25 1.530808E-17
v -0.375 0.125 7.654042E-18
v -0.375 0 0
v -0.5 0.125 7.654042E-18
v -0.5 0 0
v -0.125 -0.375 -2.296213E-17
v 0 -0.5 -3.061617E-17
v 0 -0.375 -2.296213E-17
v -0.125 -0.5 -3.061617E-17
v -0.125 -0.25 -1.530808E-17
v 0 -0.25 -1.530808E-17
v -0.25 -0.25 -1.530808E-17
v -0.25 -0.375 -2.296213E-17
v -0.25 -0.5 -3.061617E-17
v -0.125 -0.125 -7.654042E-18
v 0 -0.125 -7.654042E-18
v -0.25 -0.125 -7.654042E-18
v -0.375 -0.125 -7.654042E-18
v -0.375 -0.25 -1.530808E-17
v -0.5 -0.125 -7.654042E-18
v -0.5 -0.25 -1.530808E-17
v -0.375 -0.375 -2.296213E-17
v -0.375 -0.5 -3.061617E-17
v -0.5 -0.375 -2.296213E-17
v -0.5 -0.5 -3.061617E-17
v 0.375 -0.375 -2.296213E-17
v 0.5 -0.5 -3.061617E-17
v 0.5 -0.375 -2.296213E-17
v 0.375 -0.5 -3.061617E-17
v 0.375 -0.25 -1.530808E-17
v 0.5 -0.25 -1.530808E-17
v 0.25 -0.25 -1.530808E-17
v 0.25 -0.375 -2.296213E-17
v 0.25 -0.5 -3.061617E-17
v 0.375 -0.125 -7.654042E-18
v 0.5 -0.125 -7.654042E-18
v 0.375 0 0
v 0.5 0 0
v 0.25 0 0
v 0.25 -0.125 -7.654042E-18
v 0.125 -0.125 -7.654042E-18
v 0.125 -0.25 -1.530808E-17
v 0.125 0 0
v 0.125 -0.375 -2.296213E-17
v 0.125 -0.5 -3.061617E-17
v 0.375 0.125 7.654042E-18
v 0.5 0.125 7.654042E-18
v 0.375 0.25 1.530808E-17
v 0.5 0.25 1.530808E-17
v 0.25 0.25 1.530808E-17
v 0.25 0.125 7.654042E-18
v 0.375 0.375 2.296213E-17
v 0.5 0.375 2.296213E-17
v 0.375 0.5 3.061617E-17
v 0.5 0.5 3.061617E-17
v 0.25 0.5 3.061617E-17
v 0.25 0.375 2.296213E-17
v 0.125 0.375 2.296213E-17
v 0.125 0.25 1.530808E-17
v 0.125 0.5 3.061617E-17
v 0.125 0.125 7.654042E-18

vt 0.625 0.625
vt 0.5 0.5
vt 0.5 0.625
vt 0.625 0.5
vt 0.625 0.75
vt 0.5 0.75
vt 0.75 0.75
vt 0.75 0.625
vt 0.75 0.5
vt 0.625 0.875
vt 0.5 0.875
vt 0.625 1
vt 0.5 1
vt 0.75 1
vt 0.75 0.875
vt 0.875 0.875
vt 0.875 0.75
vt 0.875 1
vt 1 1
vt 1 0.875
vt 1 0.75
vt 0.875 0.625
vt 0.875 0.5
vt 1 0.625
vt 1 0.5
vt 0.625 0.125
vt 0.5 0
vt 0.5 0.125
vt 0.625 0
vt 0.625 0.25
vt 0.5 0.25
vt 0.75 0.25
vt 0.75 0.125
vt 0.75 0
vt 0.625 0.375
vt 0.5 0.375
vt 0.75 0.375
vt 0.875 0.375
vt 0.875 0.25
vt 1 0.375
vt 1 0.25
vt 0.875 0.125
vt 0.875 0
vt 1 0.125
vt 1 0
vt 0.125 0.125
vt 0 0
vt 0 0.125
vt 0.125 0
vt 0.125 0.25
vt 0 0.25
vt 0.25 0.25
vt 0.25 0.125
vt 0.25 0
vt 0.125 0.375
vt 0 0.375
vt 0.125 0.5
vt 0 0.5
vt 0.25 0.5
vt 0.25 0.375
vt 0.375 0.375
vt 0.375 0.25
vt 0.375 0.5
vt 0.375 0.125
vt 0.375 0
vt 0.125 0.625
vt 0 0.625
vt 0.125 0.75
vt 0 0.75
vt 0.25 0.75
vt 0.25 0.625
vt 0.125 0.875
vt 0 0.875
vt 0.125 1
vt 0 1
vt 0.25 1
vt 0.25 0.875
vt 0.375 0.875
vt 0.375 0.75
vt 0.375 1
vt 0.375 0.625

vn 0 6.123234E-17 -1

usemtl Lit
f 3/3/1 2/2/1 1/1/1
f 2/2/1 4/4/1 1/1/1
f 6/6/1 3/3/1 5/5/1
f 3/3/1 1/1/1 5/5/1
f 5/5/1 1/1/1 7/7/1
f 1/1/1 8/8/1 7/7/1
f 1/1/1 4/4/1 8/8/1
f 4/4/1 9/9/1 8/8/1
f 11/11/1 6/6/1 10/10/1
f 6/6/1 5/5/1 10/10/1
f 13/13/1 11/11/1 12/12/1
f 11/11/1 10/10/1 12/12/1
f 12/12/1 10/10/1 14/14/1
f 10/10/1 15/15/1 14/14/1
f 10/10/1 5/5/1 15/15/1
f 5/5/1 7/7/1 15/15/1
f 15/15/1 7/7/1 16/16/1
f 7/7/1 17/17/1 16/16/1
f 14/14/1 15/15/1 18/18/1
f 15/15/1 16/16/1 18/18/1
f 18/18/1 16/16/1 19/19/1
f 16/16/1 20/20/1 19/19/1
f 16/16/1 17/17/1 20/20/1
f 17/17/1 21/21/1 20/20/1
f 8/8/1 9/9/1 22/22/1
f 9/9/1 23/23/1 22/22/1
f 7/7/1 8/8/1 17/17/1
f 8/8/1 22/22/1 17/17/1
f 17/17/1 22/22/1 21/21/1
f 22/22/1 24/24/1 21/21/1
f 22/22/1 23/23/1 24/24/1
f 23/23/1 25/25/1 24/24/1
f 28/28/1 27/27/1 26/26/1
f 27/27/1 29/29/1 26/26/1
f 31/31/1 28/28/1 30/30/1
f 28/28/1 26/26/1 30/30/1
f 30/30/1 26/26/1 32/32/1
f 26/26/1 33/33/1 32/32/1
f 26/26/1 29/29/1 33/33/1
f 29/29/1 34/34/1 33/33/1
f 36/36/1 31/31/1 35/35/1
f 31/31/1 30/30/1 35/35/1
f 2/2/1 36/36/1 4/4/1
f 36/36/1 35/35/1 4/4/1
f 4/4/1 35/35/1 9/9/1
f 35/35/1 37/37/1 9/9/1
f 35/35/1 30/30/1 37/37/1
f 30/30/1 32/32/1 37/37/1
f 37/37/1 32/32/1 38/38/1
f 32/32/1 39/39/1 38/38/1
f 9/9/1 37/37/1 23/23/1
f 37/37/1 38/38/1 23/23/1
f 23/23/1 38/38/1 25/25/1
f 38/38/1 40/40/1 25/25/1
f 38/38/1 39/39/1 40/40/1
f 39/39/1 41/41/1 40/40/1
f 33/33/1 34/34/1 42/42/1
f 34/34/1 43/43/1 42/42/1
f 32/32/1 33/33/1 39/39/1
f 33/33/1 42/42/1 39/39/1
f 39/39/1 42/42/1 41/41/1
f 42/42/1 44/44/1 41/41/1
f 42/42/1 43/43/1 44/44/1
f 43/43/1 45/45/1 44/44/1
f 48/48/1 47/47/1 46/46/1
f 47/47/1 49/49/1 46/46/1
f 51/51/1 48/48/1 50/50/1
f 48/48/1 46/46/1 50/50/1
f 50/50/1 46/46/1 52/52/1
f 46/46/1 53/53/1 52/52/1
f 46/46/1 49/49/1 53/53/1
f 49/49/1 54/54/1 53/53/1
f 56/56/1 51/51/1 55/55/1
f 51/51/1 50/50/1 55/55/1
f 58/58/1 56/56/1 57/57/1
f 56/56/1 55/55/1 57/57/1
f 57/57/1 55/55/1 59/59/1
f 55/55/1 60/60/1 59/59/1
f 55/55/1 50/50/1 60/60/1
f 50/50/1 52/52/1 60/60/1
f 60/60/1 52/52/1 61/61/1
f 52/52/1 62/62/1 61/61/1
f 59/59/1 60/60/1 63/63/1
f 60/60/1 61/61/1 63/63/1
f 63/63/1 61/61/1 2/2/1
f 61/61/1 36/36/1 2/2/1
f 61/61/1 62/62/1 36/36/1
f 62/62/1 31/31/1 36/36/1
f 53/53/1 54/54/1 64/64/1
f 54/54/1 65/65/1 64/64/1
f 52/52/1 53/53/1 62/62/1
f 53/53/1 64/64/1 62/62/1
f 62/62/1 64/64/1 31/31/1
f 64/64/1 28/28/1 31/31/1
f 64/64/1 65/65/1 28/28/1
f 65/65/1 27/27/1 28/28/1
f 67/67/1 58/58/1 66/66/1
f 58/58/1 57/57/1 66/66/1
f 69/69/1 67/67/1 68/68/1
f 67/67/1 66/66/1 68/68/1
f 68/68/1 66/66/1 70/70/1
f 66/66/1 71/71/1 70/70/1
f 66/66/1 57/57/1 71/71/1
f 57/57/1 59/59/1 71/71/1
f 73/73/1 69/69/1 72/72/1
f 69/69/1 68/68/1 72/72/1
f 75/75/1 73/73/1 74/74/1
f 73/73/1 72/72/1 74/74/1
f 74/74/1 72/72/1 76/76/1
f 72/72/1 77/77/1 76/76/1
f 72/72/1 68/68/1 77/77/1
f 68/68/1 70/70/1 77/77/1
f 77/77/1 70/70/1 78/78/1
f 70/70/1 79/79/1 78/78/1
f 76/76/1 77/77/1 80/80/1
f 77/77/1 78/78/1 80/80/1
f 80/80/1 78/78/1 13/13/1
f 78/78/1 11/11/1 13/13/1
f 78/78/1 79/79/1 11/11/1
f 79/79/1 6/6/1 11/11/1
f 71/71/1 59/59/1 81/81/1
f 59/59/1 63/63/1 81/81/1
f 70/70/1 71/71/1 79/79/1
f 71/71/1 81/81/1 79/79/1
f 79/79/1 81/81/1 6/6/1
f 81/81/1 3/3/1 6/6/1
f 81/81/1 63/63/1 3/3/1
f 63/63/1 2/2/1 3/3/1

