# ProBuilder 5.0.4
# https://unity3d.com/unity/features/worldbuilding/probuilder
# 29/11/2022 12:35:03

mtllib ./triangleTesselated.mtl
o triangleTesselated

g trianglesTesselated
v 4 8.881785E-17 -4
v 4 1.110223E-16 -5
v 5 1.110223E-16 -5
v 3 6.661338E-17 -3
v 3 8.881785E-17 -4
v 3 1.110223E-16 -5
v 2 4.440892E-17 -2
v 2 6.661338E-17 -3
v 1 2.220447E-17 -1
v 1 4.440892E-17 -2
v 2 8.881785E-17 -4
v 2 1.110223E-16 -5
v 1 6.661338E-17 -3
v 0 0 0
v 0 2.220447E-17 -1
v 1 8.881785E-17 -4
v 1 1.110223E-16 -5
v 0 4.440892E-17 -2
v 0 6.661338E-17 -3
v 0 8.881785E-17 -4
v 0 1.110223E-16 -5
v -0.9999999 8.881785E-17 -4
v -0.9999999 1.110223E-16 -5
v -0.9999999 6.661338E-17 -3
v -0.9999999 4.440892E-17 -2
v -0.9999999 2.220447E-17 -1
v -0.9999999 0 0
v -2 8.881785E-17 -4
v -2 1.110223E-16 -5
v -2 6.661338E-17 -3
v -2 4.440892E-17 -2
v -2 2.220447E-17 -1
v -3 8.881785E-17 -4
v -3 1.110223E-16 -5
v -3 6.661338E-17 -3
v -3 4.440892E-17 -2
v -4 8.881785E-17 -4
v -4 1.110223E-16 -5
v -4 6.661338E-17 -3
v -5 8.881785E-17 -4
v -5 1.110223E-16 -5
v -5 6.661338E-17 -3
v -5 4.440892E-17 -2
v -4 4.440892E-17 -2
v -5 2.220447E-17 -1
v -4 2.220447E-17 -1
v -3 2.220447E-17 -1
v -5 0 0
v -4 0 0
v -3 0 0
v -5 -2.220446E-17 0.9999999
v -4 -2.220446E-17 0.9999999
v -2 0 0
v -3 -2.220446E-17 0.9999999
v -5 -4.440892E-17 2
v -4 -4.440892E-17 2
v -5 -6.661338E-17 3
v -4 -6.661338E-17 3
v -2 -2.220446E-17 0.9999999
v -3 -4.440892E-17 2
v -0.9999999 -2.220446E-17 0.9999999
v -5 -8.881784E-17 4
v -4 -8.881784E-17 4
v -2 -4.440892E-17 2
v -3 -6.661338E-17 3
v -5 -1.110223E-16 5

vt 0.9 0.9
vt 0.9 1
vt 1 1
vt 0.8 0.8
vt 0.8 0.9
vt 0.8 1
vt 0.7 0.7
vt 0.7 0.8
vt 0.6 0.6
vt 0.6 0.7
vt 0.7 0.9
vt 0.7 1
vt 0.6 0.8
vt 0.5 0.5
vt 0.5 0.6
vt 0.6 0.9
vt 0.6 1
vt 0.5 0.7
vt 0.5 0.8
vt 0.5 0.9
vt 0.5 1
vt 0.4 0.9
vt 0.4 1
vt 0.4 0.8
vt 0.4 0.7
vt 0.4 0.6
vt 0.4 0.5
vt 0.3 0.9
vt 0.3 1
vt 0.3 0.8
vt 0.3 0.7
vt 0.3 0.6
vt 0.2 0.9
vt 0.2 1
vt 0.2 0.8
vt 0.2 0.7
vt 0.1 0.9
vt 0.1 1
vt 0.1 0.8
vt 0 0.9
vt 0 1
vt 0 0.8
vt 0 0.7
vt 0.1 0.7
vt 0 0.6
vt 0.1 0.6
vt 0.2 0.6
vt 0 0.5
vt 0.1 0.5
vt 0.2 0.5
vt 0 0.4
vt 0.1 0.4
vt 0.3 0.5
vt 0.2 0.4
vt 0 0.3
vt 0.1 0.3
vt 0 0.2
vt 0.1 0.2
vt 0.3 0.4
vt 0.2 0.3
vt 0.4 0.4
vt 0 0.1
vt 0.1 0.1
vt 0.3 0.3
vt 0.2 0.2
vt 0 0

vn 0 1 2.220446E-17

usemtl Lit
f 3/3/1 2/2/1 1/1/1
f 1/1/1 5/5/1 4/4/1
f 1/1/1 2/2/1 5/5/1
f 2/2/1 6/6/1 5/5/1
f 4/4/1 8/8/1 7/7/1
f 7/7/1 10/10/1 9/9/1
f 4/4/1 5/5/1 8/8/1
f 5/5/1 11/11/1 8/8/1
f 5/5/1 6/6/1 11/11/1
f 6/6/1 12/12/1 11/11/1
f 7/7/1 8/8/1 10/10/1
f 8/8/1 13/13/1 10/10/1
f 9/9/1 15/15/1 14/14/1
f 8/8/1 11/11/1 13/13/1
f 11/11/1 16/16/1 13/13/1
f 11/11/1 12/12/1 16/16/1
f 12/12/1 17/17/1 16/16/1
f 9/9/1 10/10/1 15/15/1
f 10/10/1 18/18/1 15/15/1
f 10/10/1 13/13/1 18/18/1
f 13/13/1 19/19/1 18/18/1
f 13/13/1 16/16/1 19/19/1
f 16/16/1 20/20/1 19/19/1
f 16/16/1 17/17/1 20/20/1
f 17/17/1 21/21/1 20/20/1
f 20/20/1 21/21/1 22/22/1
f 21/21/1 23/23/1 22/22/1
f 19/19/1 20/20/1 24/24/1
f 20/20/1 22/22/1 24/24/1
f 18/18/1 19/19/1 25/25/1
f 19/19/1 24/24/1 25/25/1
f 15/15/1 18/18/1 26/26/1
f 18/18/1 25/25/1 26/26/1
f 14/14/1 15/15/1 27/27/1
f 15/15/1 26/26/1 27/27/1
f 22/22/1 23/23/1 28/28/1
f 23/23/1 29/29/1 28/28/1
f 24/24/1 22/22/1 30/30/1
f 22/22/1 28/28/1 30/30/1
f 25/25/1 24/24/1 31/31/1
f 24/24/1 30/30/1 31/31/1
f 26/26/1 25/25/1 32/32/1
f 25/25/1 31/31/1 32/32/1
f 28/28/1 29/29/1 33/33/1
f 29/29/1 34/34/1 33/33/1
f 30/30/1 28/28/1 35/35/1
f 28/28/1 33/33/1 35/35/1
f 31/31/1 30/30/1 36/36/1
f 30/30/1 35/35/1 36/36/1
f 33/33/1 34/34/1 37/37/1
f 34/34/1 38/38/1 37/37/1
f 35/35/1 33/33/1 39/39/1
f 33/33/1 37/37/1 39/39/1
f 37/37/1 38/38/1 40/40/1
f 38/38/1 41/41/1 40/40/1
f 37/37/1 40/40/1 42/42/1
f 39/39/1 37/37/1 42/42/1
f 39/39/1 42/42/1 43/43/1
f 44/44/1 39/39/1 43/43/1
f 35/35/1 39/39/1 44/44/1
f 36/36/1 35/35/1 44/44/1
f 44/44/1 43/43/1 45/45/1
f 46/46/1 44/44/1 45/45/1
f 36/36/1 44/44/1 46/46/1
f 47/47/1 36/36/1 46/46/1
f 46/46/1 45/45/1 48/48/1
f 49/49/1 46/46/1 48/48/1
f 31/31/1 36/36/1 47/47/1
f 32/32/1 31/31/1 47/47/1
f 47/47/1 46/46/1 49/49/1
f 50/50/1 47/47/1 49/49/1
f 49/49/1 48/48/1 51/51/1
f 52/52/1 49/49/1 51/51/1
f 32/32/1 47/47/1 50/50/1
f 53/53/1 32/32/1 50/50/1
f 50/50/1 49/49/1 52/52/1
f 54/54/1 50/50/1 52/52/1
f 52/52/1 51/51/1 55/55/1
f 56/56/1 52/52/1 55/55/1
f 26/26/1 32/32/1 53/53/1
f 27/27/1 26/26/1 53/53/1
f 56/56/1 55/55/1 57/57/1
f 58/58/1 56/56/1 57/57/1
f 53/53/1 50/50/1 54/54/1
f 59/59/1 53/53/1 54/54/1
f 54/54/1 52/52/1 56/56/1
f 60/60/1 54/54/1 56/56/1
f 27/27/1 53/53/1 59/59/1
f 61/61/1 27/27/1 59/59/1
f 58/58/1 57/57/1 62/62/1
f 63/63/1 58/58/1 62/62/1
f 59/59/1 54/54/1 60/60/1
f 64/64/1 59/59/1 60/60/1
f 60/60/1 56/56/1 58/58/1
f 65/65/1 60/60/1 58/58/1
f 14/14/1 27/27/1 61/61/1
f 63/63/1 62/62/1 66/66/1
f 65/65/1 58/58/1 63/63/1
f 61/61/1 59/59/1 64/64/1
f 64/64/1 60/60/1 65/65/1

